PathFileType	4	(x/y/z)	A01_PREF_T0017.trc
DataRate	CameraRate	NumFrames	NumMarkers	Units	OrigDataRate	OrigDataStartFrame	OrigNumFrames
240	240	8	48	mm	240	1	309
Frame#	Time	TOP_HEAD			R_AC			L_AC			R_ASIS			L_ASIS			R_PSIS			L_PSIS			SACRAL			L_IC			R_IC			L_GT			R_GT			R_LAT_KNEE			R_MED_KNEE			L_MED_KNEE			L_LAT_KNEE			R_TOE			L_TOE			R_1ST_MET			L_1ST_MET			L_5TH_MET			R_5TH_MET			R_LAT_ANK			R_MED_ANK			L_MED_ANK			L_LAT_ANK			L_HEEL_SUP			R_HEEL_SUP			L_HEEL_LAT			R_HEEL_LAT			L_HEEL_MED			R_HEEL_MED			R_LL_PROX_POST			R_LL_PROX_ANT			R_LL_DIST_ANT			R_LL_DIST_POST			R_THIGH_PROX_POST			R_THIGH_PROX_ANT			R_THIGH_DIST_ANT			R_THIGH_DIST_POST			L_PROS_PROX_ANT			L_PROS_PROX_POST			L_PROS_DIST_POST			L_PROS_DIST_ANT			L_THIGH_PROX_ANT			L_THIGH_PROX_POST			L_THIGH_DIST_POST			L_THIGH_DIST_ANT			
		X1	Y1	Z1	X2	Y2	Z2	X3	Y3	Z3	X4	Y4	Z4	X5	Y5	Z5	X6	Y6	Z6	X7	Y7	Z7	X8	Y8	Z8	X9	Y9	Z9	X10	Y10	Z10	X11	Y11	Z11	X12	Y12	Z12	X13	Y13	Z13	X14	Y14	Z14	X15	Y15	Z15	X16	Y16	Z16	X17	Y17	Z17	X18	Y18	Z18	X19	Y19	Z19	X20	Y20	Z20	X21	Y21	Z21	X22	Y22	Z22	X23	Y23	Z23	X24	Y24	Z24	X25	Y25	Z25	X26	Y26	Z26	X27	Y27	Z27	X28	Y28	Z28	X29	Y29	Z29	X30	Y30	Z30	X31	Y31	Z31	X32	Y32	Z32	X33	Y33	Z33	X34	Y34	Z34	X35	Y35	Z35	X36	Y36	Z36	X37	Y37	Z37	X38	Y38	Z38	X39	Y39	Z39	X40	Y40	Z40	X41	Y41	Z41	X42	Y42	Z42	X43	Y43	Z43	X44	Y44	Z44	X45	Y45	Z45	X46	Y46	Z46	X47	Y47	Z47	X48	Y48	Z48	

1	0	-562.45	1749.9	315.1	-816.82	1560.8	527.89	-822.72	1571.9	69.621	-845.2	1097.6	497.51	-807.41	1037.8	148.41	-1045.5	1117.4	344.39	-1022.6	1104	216.73	-1053.7	1083.4	277.88	-840.84	1161.7	104.92	-869.09	1202.3	504.54	-859.29	958.6	99.916	-933	998.42	526.06	-1053.8	608.03	452.81	NaN	NaN	NaN	-728.77	577.09	334.62	-749.91	574.4	175.51	-1013.4	64.573	335.67	-382.36	190.66	235.88	-1092.7	54.539	291.73	-444.36	132.97	291.91	-466.55	112.35	162.19	-1118.8	44.017	425.85	-1201.8	158.35	409.96	-1187.5	168.35	309.57	-595.22	156.53	271.79	-618.45	138.03	204.59	-675.39	53.969	244.13	-1307.3	162.09	349.29	-653.28	31.366	212.55	-1307	133.37	381.89	-643.98	34.651	276.85	-1301.4	134.02	320.63	-1192.2	463.57	439.25	-1130.3	436.83	466.2	-1144	363.14	446.86	-1195.9	380.99	430.22	-1009.6	878.15	495.57	-938.91	877.12	512.19	-959.63	788.43	500.22	-1026.3	790.61	483.13	-674.98	516.56	188.65	-724.83	494.44	177.12	-705.62	434.37	184.72	-661.09	461.99	196.39	-762.48	834.78	151.54	-825.16	820.33	118.55	-796.03	751.78	136.63	-740.67	765.12	165.95
2	0.0041802	-557.64	1748.8	314.79	-811.71	1559.6	527.66	-818.08	1570.7	69.446	-840.17	1096.6	497.38	-802.24	1036.6	148.22	-1040.4	1116.3	344.04	-1017.5	1102.7	216.4	-1048.6	1082.2	277.56	-835.51	1160.9	104.65	-864.26	1201.2	504.4	-854.02	957.27	99.837	-928.21	997.56	525.99	-1050.5	607.76	452.79	NaN	NaN	NaN	-723.19	576.29	336.1	-744.14	573.27	176.67	-1013.4	64.537	335.63	-374.6	191.67	238.01	-1092.6	54.472	291.68	-436.43	133.74	293.84	-458.33	112.9	164.28	-1118.6	44.066	425.85	-1200.9	158.87	409.98	-1186.6	168.86	309.6	-587.31	156.36	273.65	-610.37	137.72	206.45	-666.96	53.553	246.08	-1306.1	163.05	349.39	-644.66	31.058	214.51	-1306.3	134.47	381.9	-635.5	34.363	278.79	-1300.6	135.04	320.81	-1189.7	464.08	439.22	-1127.9	436.97	466.18	-1142	363.45	446.87	-1193.8	381.49	430.23	-1005.2	877.7	495.46	-934.57	876.41	512.17	-955.58	787.79	500.21	-1022.2	790.22	483.05	-668.92	515.86	189.98	-718.65	493.45	178.43	-699.15	433.5	186.12	-654.74	461.41	197.78	-756.82	833.66	151.83	-819.49	819.07	118.93	-790.4	750.6	137.3	-735	764.11	166.6
3	0.0083604	-552.63	1747.6	314.47	-806.39	1558.3	527.42	-813.23	1569.4	69.249	-834.92	1095.5	497.24	-796.83	1035.3	148.04	-1035	1115.2	343.69	-1012.1	1101.4	216.07	-1043.4	1080.9	277.23	-829.96	1160.1	104.37	-859.22	1200	504.26	-848.51	955.89	99.765	-923.2	996.66	525.93	-1047	607.46	452.79	NaN	NaN	NaN	-717.38	575.45	337.58	-738.11	572.09	177.85	-1013.3	64.502	335.6	-366.62	192.54	240.21	-1092.5	54.402	291.62	-428.3	134.39	295.85	-449.91	113.37	166.44	-1118.4	44.117	425.85	-1200	159.41	410.01	-1185.7	169.4	309.65	-579.19	156.15	275.57	-602.08	137.35	208.36	-658.37	53.156	248.1	-1304.8	164.07	349.5	-635.89	30.763	216.53	-1305.7	135.62	381.91	-626.86	34.069	280.78	-1299.7	136.12	320.98	-1187	464.6	439.2	-1125.3	437.1	466.18	-1139.8	363.76	446.89	-1191.6	382	430.24	-1000.6	877.22	495.36	-930.04	875.67	512.17	-951.34	787.13	500.2	-1017.9	789.8	482.97	-662.61	515.1	191.34	-712.22	492.42	179.76	-692.45	432.59	187.57	-648.15	460.77	199.21	-750.91	832.49	152.16	-813.57	817.77	119.34	-784.51	749.37	138.02	-729.08	763.05	167.29
4	0.012541	-547.44	1746.4	314.12	-800.87	1557	527.15	-808.2	1568.1	69.029	-829.49	1094.4	497.12	-791.21	1033.9	147.86	-1029.5	1114	343.32	-1006.5	1100	215.73	-1037.9	1079.6	276.9	-824.22	1159.1	104.08	-853.99	1198.8	504.12	-842.77	954.46	99.704	-918.03	995.73	525.87	-1043.4	607.14	452.79	NaN	NaN	NaN	-711.36	574.58	339.04	-731.87	570.88	179.04	-1013.2	64.469	335.57	-358.47	193.24	242.47	-1092.4	54.328	291.57	-420.05	134.9	297.9	-441.39	113.74	168.64	-1118.3	44.167	425.86	-1199	159.97	410.06	-1184.7	169.96	309.7	-570.96	155.87	277.53	-593.68	136.91	210.3	-649.7	52.788	250.15	-1303.5	165.14	349.61	-627.07	30.488	218.58	-1304.9	136.81	381.92	-618.17	33.775	282.81	-1298.8	137.26	321.15	-1184.2	465.14	439.19	-1122.7	437.24	466.2	-1137.6	364.07	446.92	-1189.3	382.53	430.26	-995.91	876.72	495.26	-925.35	874.9	512.18	-946.94	786.43	500.21	-1013.5	789.36	482.9	-656.09	514.3	192.72	-705.59	491.34	181.11	-685.55	431.63	189.03	-641.37	460.08	200.66	-744.79	831.28	152.53	-807.43	816.43	119.8	-778.41	748.11	138.78	-722.94	761.96	168.02
5	0.016721	-542.11	1745.2	313.77	-795.19	1555.6	526.86	-803.02	1566.7	68.783	-823.91	1093.3	497	-785.41	1032.5	147.68	-1023.8	1112.7	342.95	-1000.8	1098.5	215.39	-1032.2	1078.2	276.56	-818.34	1158.2	103.77	-848.6	1197.5	503.98	-836.85	952.98	99.657	-912.7	994.77	525.82	-1039.6	606.79	452.82	NaN	NaN	NaN	-705.16	573.67	340.47	-725.45	569.64	180.23	-1013.1	64.438	335.53	-350.24	193.72	244.78	-1092.2	54.251	291.52	-411.76	135.23	300	-432.86	113.97	170.87	-1118.1	44.216	425.86	-1198	160.55	410.12	-1183.7	170.55	309.78	-562.71	155.51	279.51	-585.26	136.4	212.26	-641.06	52.46	252.23	-1302.2	166.27	349.72	-618.3	30.238	220.65	-1304.2	138.04	381.95	-609.52	33.485	284.86	-1297.9	138.45	321.3	-1181.3	465.68	439.18	-1120	437.37	466.23	-1135.3	364.38	446.96	-1186.9	383.08	430.28	-991.03	876.19	495.16	-920.51	874.1	512.21	-942.39	785.71	500.24	-1008.9	788.89	482.84	-649.41	513.45	194.11	-698.82	490.24	182.47	-678.52	430.64	190.5	-634.44	459.34	202.11	-738.49	830.05	152.94	-801.11	815.06	120.29	-772.12	746.81	139.58	-716.62	760.83	168.79
6	0.020901	-536.67	1744	313.39	-789.37	1554.2	526.54	-797.7	1565.3	68.509	-818.21	1092.1	496.89	-779.44	1031.1	147.51	-1018	1111.4	342.57	-994.93	1097	215.06	-1026.5	1076.8	276.22	-812.33	1157.1	103.46	-843.09	1196.3	503.84	-830.75	951.47	99.63	-907.26	993.78	525.79	-1035.6	606.42	452.86	NaN	NaN	NaN	-698.83	572.75	341.84	-718.88	568.41	181.42	-1013.1	64.41	335.5	-342	193.94	247.11	-1092.1	54.173	291.47	-403.51	135.36	302.11	-424.39	114.05	173.12	-1117.9	44.265	425.87	-1197	161.14	410.21	-1182.6	171.15	309.86	-554.49	155.08	281.49	-576.89	135.81	214.22	-632.54	52.182	254.31	-1300.9	167.46	349.84	-609.69	30.023	222.73	-1303.3	139.31	381.98	-601	33.204	286.91	-1297	139.69	321.45	-1178.3	466.23	439.18	-1117.2	437.5	466.27	-1133	364.67	447.02	-1184.4	383.63	430.32	-986.03	875.63	495.08	-915.55	873.28	512.26	-937.73	784.96	500.29	-1004.2	788.38	482.79	-642.61	512.57	195.49	-691.92	489.12	183.81	-671.4	429.62	191.97	-627.41	458.55	203.57	-732.04	828.79	153.4	-794.65	813.66	120.84	-765.67	745.5	140.41	-710.15	759.69	169.59
7	0.025081	-531.13	1742.7	313.01	-783.45	1552.8	526.2	-792.28	1563.8	68.203	-812.42	1090.9	496.79	-773.34	1029.7	147.36	-1012	1110.1	342.2	-988.94	1095.5	214.73	-1020.6	1075.4	275.88	-806.22	1156	103.15	-837.47	1194.9	503.7	-824.5	949.93	99.625	-901.71	992.77	525.77	-1031.6	606.02	452.92	NaN	NaN	NaN	-692.39	571.8	343.14	-712.19	567.17	182.59	-1013	64.385	335.46	-333.8	193.86	249.45	-1092	54.094	291.42	-395.38	135.24	304.23	-416.06	113.95	175.35	-1117.7	44.311	425.89	-1195.9	161.74	410.31	-1181.4	171.76	309.97	-546.4	154.57	283.46	-568.64	135.15	216.16	-624.23	51.965	256.36	-1299.6	168.71	349.96	-601.3	29.848	224.78	-1302.4	140.6	382.02	-592.71	32.937	288.93	-1296	140.99	321.58	-1175.2	466.79	439.2	-1114.2	437.62	466.34	-1130.5	364.96	447.1	-1181.8	384.2	430.37	-980.92	875.04	495	-910.48	872.44	512.32	-932.96	784.2	500.37	-999.44	787.86	482.75	-635.72	511.64	196.86	-684.95	487.99	185.14	-664.23	428.57	193.41	-620.32	457.71	205	-725.46	827.52	153.9	-788.06	812.26	121.43	-759.1	744.17	141.27	-703.55	758.52	170.41
8	0.029261	-525.51	1741.4	312.61	-777.45	1551.4	525.82	-786.75	1562.3	67.865	-806.56	1089.7	496.71	-767.11	1028.3	147.23	-1006	1108.8	341.82	-982.84	1094	214.41	-1014.6	1073.9	275.54	-800.04	1154.9	102.83	-831.76	1193.6	503.56	-818.13	948.36	99.648	-896.1	991.74	525.77	-1027.4	605.6	453.01	NaN	NaN	NaN	-685.86	570.84	344.37	-705.4	565.95	183.72	-1012.9	64.363	335.43	-325.71	193.45	251.78	-1091.9	54.014	291.37	-387.42	134.87	306.34	-407.95	113.66	177.55	-1117.5	44.353	425.9	-1194.7	162.35	410.45	-1180.2	172.4	310.11	-538.49	153.96	285.39	-560.59	134.4	218.05	-616.18	51.816	258.37	-1298.3	170.01	350.08	-593.23	29.721	226.78	-1301.5	141.92	382.07	-584.73	32.69	290.92	-1295	142.33	321.7	-1171.9	467.34	439.23	-1111.2	437.73	466.44	-1128	365.23	447.2	-1179.2	384.78	430.43	-975.72	874.43	494.93	-905.33	871.58	512.41	-928.1	783.41	500.47	-994.54	787.3	482.73	-628.76	510.68	198.2	-677.93	486.85	186.44	-657.05	427.52	194.82	-613.19	456.82	206.41	-718.79	826.24	154.44	-781.37	810.86	122.06	-752.43	742.83	142.16	-696.85	757.35	171.26
